<?xml version="1.0" encoding="UTF-8"?>
<svg version="1.1" xmlns="http://www.w3.org/2000/svg" width="644" height="956">
<path d="M0 0 C1.35611813 0.00502686 2.71223808 0.00958766 4.06835938 0.01367188 C7.35811994 0.02537921 10.64778594 0.04177789 13.9375 0.0625 C26.81797919 47.2099144 19.13412515 107.01390044 -4.5 149.5625 C-21.08288878 178.38258944 -46.97776614 199.22592436 -79.0625 208.0625 C-85.73478139 209.39481315 -92.40256018 209.24853917 -99.17480469 209.24780273 C-101.42402135 209.24998691 -103.67274501 209.26816985 -105.921875 209.28710938 C-107.37239418 209.29004459 -108.82291566 209.29202853 -110.2734375 209.29296875 C-112.22709229 209.29913208 -112.22709229 209.29913208 -114.22021484 209.30541992 C-124.46743794 208.65756206 -124.46743794 208.65756206 -128.0625 205.0625 C-129.05661895 198.15399206 -127.53757883 191.90728592 -125.25 185.4375 C-124.9408667 184.54216553 -124.6317334 183.64683105 -124.31323242 182.72436523 C-111.7406233 147.44740752 -91.92331242 115.71925645 -68.0625 87.0625 C-67.13280702 85.94401497 -66.20311972 84.82552522 -65.2734375 83.70703125 C-62.87357771 80.82234707 -60.46919168 77.94148608 -58.0625 75.0625 C-71.44114704 84.92831793 -84.39915263 95.23458426 -95.0625 108.0625 C-95.89265625 109.00480469 -96.7228125 109.94710937 -97.578125 110.91796875 C-104.52749723 118.83985866 -110.45659417 127.14913019 -116.0625 136.0625 C-116.54895996 136.82481934 -117.03541992 137.58713867 -117.53662109 138.37255859 C-141.84033506 176.63026266 -151.29338249 221.62418029 -157.0625 266.0625 C-157.1744873 266.90264648 -157.28647461 267.74279297 -157.40185547 268.60839844 C-160.35785183 293.76376707 -158.43141288 319.42123115 -153.0625 344.0625 C-152.84892853 345.05204681 -152.84892853 345.05204681 -152.63104248 346.06158447 C-149.93300058 358.54304152 -147.21027692 370.97047673 -143.0625 383.0625 C-117.35721732 383.95139316 -91.65158665 384.19855609 -65.93359375 384.34375 C-65.10265843 384.34851852 -64.27172311 384.35328705 -63.41560793 384.35820007 C-48.65597725 384.44281849 -33.89629536 384.5169256 -19.13659668 384.58856201 C-9.50982456 384.63539842 0.11692578 384.68445686 9.74365181 384.74004889 C14.65742445 384.76817712 19.57119104 384.79183846 24.48500264 384.81197357 C27.52270842 384.82538875 30.5603819 384.84279091 33.59806061 384.86128426 C34.99968334 384.86900782 36.40131626 384.87509146 37.80295372 384.87937737 C39.72079237 384.88547108 41.63860689 384.89809778 43.55641174 384.91101074 C44.62628106 384.91616447 45.69615038 384.92131821 46.79843998 384.92662811 C55.90352447 385.32073495 55.90352447 385.32073495 59.8125 388.125 C64.68920733 394.86633073 63.08372231 405.17938214 63.07794189 413.18212891 C63.08052871 414.61876314 63.08354275 416.05539666 63.0869453 417.49202919 C63.0949807 421.42626082 63.09680292 425.36047416 63.09754276 429.29471302 C63.09939925 433.54289548 63.10694933 437.79106859 63.11367798 442.03924561 C63.12723491 451.32000348 63.13328125 460.60075701 63.13768864 469.88152313 C63.14045425 475.67746573 63.14469206 481.47340667 63.14919281 487.26934814 C63.1613796 503.32148127 63.17168165 519.37361308 63.1750679 535.42575073 C63.17528747 536.45218598 63.17550703 537.47862124 63.17573325 538.53616059 C63.17595153 539.56501401 63.17616981 540.59386744 63.1763947 541.65389824 C63.17683816 543.73866654 63.17728473 545.82343483 63.17773438 547.90820312 C63.1779558 548.94231457 63.17817723 549.97642601 63.17840537 551.04187417 C63.18235615 567.81015072 63.19982132 584.5783839 63.2230939 601.34664369 C63.24680275 618.5683263 63.25926946 635.78998713 63.26043582 653.01168633 C63.26135258 662.67881511 63.26710565 672.34588729 63.28525543 682.01300049 C63.30064977 690.24124845 63.30578063 698.46942228 63.29751733 706.6976819 C63.29360913 710.89513677 63.29454888 715.09244232 63.30857468 719.28987885 C63.32130255 723.13401083 63.320126 726.9778811 63.30798396 730.82201266 C63.3060251 732.21087284 63.30911421 733.59975149 63.31782833 734.98858571 C63.40931668 750.55826639 63.40931668 750.55826639 58.32177734 757.15869141 C50.26406194 763.98903204 41.37892188 769.64930506 32.5625 775.4375 C30.81131513 776.5943675 29.06058673 777.75192623 27.31030273 778.91015625 C23.81835024 781.22008395 20.32425991 783.52672178 16.82861328 785.83105469 C12.51865304 788.67485872 8.22189889 791.53773028 3.93359375 794.4140625 C3.33657654 794.81440201 2.73955933 795.21474152 2.12445068 795.62721252 C1.5453595 796.01553757 0.96626831 796.40386261 0.36962891 796.80395508 C-8.05585648 802.45374991 -16.49811315 808.05393551 -25.13671875 813.37329102 C-33.9820513 818.83047865 -42.63673562 824.58785054 -51.33251953 830.27880859 C-55.19348583 832.8014539 -59.06394363 835.30924324 -62.9375 837.8125 C-63.61546631 838.25070068 -64.29343262 838.68890137 -64.99194336 839.14038086 C-66.33927856 840.01102398 -67.68668988 840.88154931 -69.03417969 841.75195312 C-71.8311125 843.55911915 -74.62676815 845.3682558 -77.42236328 847.17749023 C-78.85033578 848.10161618 -80.27839584 849.02560684 -81.70654297 849.94946289 C-85.14935716 852.1766341 -88.59135353 854.40504334 -92.03125 856.63671875 C-96.37117006 859.45125807 -100.71553646 862.25885212 -105.0625 865.0625 C-106.51897949 866.00198486 -106.51897949 866.00198486 -108.00488281 866.96044922 C-147.320189 892.29360401 -147.320189 892.29360401 -157.0625 891.0625 C-160.40818872 889.78403178 -163.26585365 887.96500434 -166.25 886 C-167.0965918 885.46777832 -167.94318359 884.93555664 -168.81542969 884.38720703 C-171.5814587 882.63740398 -174.32303194 880.85356298 -177.0625 879.0625 C-179.01159406 877.80058864 -180.96081459 876.5388726 -182.91015625 875.27734375 C-186.83125282 872.73127402 -190.74241176 870.17068183 -194.6484375 867.6015625 C-199.20738228 864.60950618 -203.80239245 861.68484623 -208.4375 858.8125 C-213.72490343 855.53487336 -218.97111166 852.20208536 -224.1875 848.8125 C-233.50000728 842.76254878 -242.87108721 836.80608732 -252.24511719 830.85205078 C-259.56693092 826.20136667 -266.88563032 821.54579784 -274.20117188 816.88525391 C-276.13188623 815.65532956 -278.06288243 814.42584756 -279.99414062 813.19677734 C-297.11332819 802.29741217 -314.12359339 791.23930292 -331.0625 780.0625 C-332.05869354 779.40556152 -332.05869354 779.40556152 -333.07501221 778.73535156 C-337.16862342 776.03511568 -341.25873147 773.32968348 -345.34463501 770.61779785 C-346.63617777 769.761109 -347.92845201 768.90552168 -349.2215271 768.05114746 C-369.85626207 754.40925534 -369.85626207 754.40925534 -373.0625 748.0625 C-373.44281673 745.04167747 -373.44281673 745.04167747 -373.45018005 741.61288452 C-373.46008469 740.30929993 -373.46998932 739.00571533 -373.48019409 737.66262817 C-373.47595617 736.22479154 -373.47139832 734.78695581 -373.46655273 733.34912109 C-373.47225746 731.82929991 -373.47922212 730.30948301 -373.48735046 728.78967285 C-373.5052935 724.66533316 -373.50411043 720.54120612 -373.49840808 716.41683912 C-373.49531544 712.96797395 -373.50141008 709.51914957 -373.50744683 706.07029021 C-373.5214965 697.92654564 -373.51992934 689.78290595 -373.50854492 681.63916016 C-373.49708508 673.25662826 -373.51110228 664.8744171 -373.5379414 656.4919275 C-373.56015516 649.28234977 -373.56672238 642.07287228 -373.56086498 634.86326277 C-373.55750509 630.56318656 -373.55984472 626.26331551 -373.57711601 621.96326828 C-373.59267194 617.91329675 -373.58853474 613.86379627 -373.56981087 609.81384277 C-373.5661476 608.33490713 -373.56916676 606.85593593 -373.57969666 605.37703323 C-373.66591439 592.25638576 -371.61038242 582.80205831 -362.2890625 573.22265625 C-361.55429687 572.50980469 -360.81953125 571.79695312 -360.0625 571.0625 C-359.53398437 570.52496094 -359.00546875 569.98742187 -358.4609375 569.43359375 C-351.91428039 563.30753193 -343.48426181 562.58191291 -334.9375 562.75 C-333.98883057 562.75837891 -333.04016113 562.76675781 -332.06274414 562.77539062 C-325.17334544 562.88854491 -318.355991 563.40222876 -311.5 564.0625 C-270.235556 568.01235055 -229.84735013 558.85904589 -197.0625 532.4375 C-195.38285414 530.9941346 -193.71568149 529.53610267 -192.0625 528.0625 C-191.21429688 527.32257812 -190.36609375 526.58265625 -189.4921875 525.8203125 C-186.98192809 523.60176519 -184.51610448 521.34342855 -182.0625 519.0625 C-181.34707031 518.4128125 -180.63164062 517.763125 -179.89453125 517.09375 C-162.36589671 500.49103604 -150.61023847 479.04880648 -142.40234375 456.5703125 C-142.13446045 455.83683594 -141.86657715 455.10335938 -141.59057617 454.34765625 C-141.08359308 452.94012994 -140.58710643 451.52876462 -140.1027832 450.11328125 C-138.83316144 446.5370358 -138.3217055 445.23530367 -135.0625 443.0625 C-132.44445515 442.81640434 -132.44445515 442.81640434 -129.23493958 442.82199097 C-127.41129631 442.81786697 -127.41129631 442.81786697 -125.55081177 442.81365967 C-124.20159814 442.82073791 -122.8523855 442.82800753 -121.50317383 442.83544922 C-120.08403023 442.8360133 -118.66488605 442.83569684 -117.2457428 442.83456421 C-113.39062052 442.83398955 -109.53562229 442.84576206 -105.68052888 442.85971212 C-101.65264147 442.87220072 -97.62475132 442.8733885 -93.59684753 442.87576294 C-85.96832061 442.88198322 -78.3398509 442.89840143 -70.71134919 442.91846192 C-62.02705144 442.94080389 -53.34275098 442.95181006 -44.65843165 442.96185279 C-26.79308864 442.98276719 -8.92779892 443.0179538 8.9375 443.0625 C10.66293798 446.06399514 11.18732929 448.21253417 11.18638897 451.66256809 C11.19328716 453.04898859 11.19328716 453.04898859 11.20032471 454.46341759 C11.19260937 455.98133751 11.19260937 455.98133751 11.18473816 457.52992249 C11.18715257 458.60772034 11.18956699 459.68551819 11.19205457 460.79597658 C11.19770584 464.42011634 11.18901736 468.04408095 11.18041992 471.66821289 C11.18149249 474.26175993 11.1834308 476.85530673 11.18617249 479.44885254 C11.19121671 485.77134919 11.18556905 492.09379357 11.17632218 498.41628373 C11.16593489 505.78392336 11.16600851 513.1515517 11.16649476 520.51919728 C11.1669956 533.67288408 11.15783045 546.82654658 11.14331055 559.98022461 C11.12924287 572.73088016 11.12213892 585.48151432 11.12280273 598.23217773 C11.12284269 599.01646123 11.12288265 599.80074473 11.12292381 600.6087944 C11.12296417 601.3917453 11.12300452 602.1746962 11.1230461 602.98137289 C11.12373735 617.5068429 11.1178352 632.03230384 11.10889288 646.5577709 C11.10588416 651.68678452 11.1048142 656.81579646 11.10436058 661.94481087 C11.10360415 668.86158613 11.09722742 675.7783386 11.08719444 682.69510651 C11.08428133 685.23026581 11.08304166 687.76542769 11.08362198 690.30058861 C11.08411535 693.76914661 11.07843061 697.23764268 11.07121277 700.70619202 C11.07276137 701.70252358 11.07430997 702.69885514 11.0759055 703.72537857 C11.01543346 721.40189981 11.01543346 721.40189981 8.27539062 725.62304688 C7.55544922 726.17025391 6.83550781 726.71746094 6.09375 727.28125 C5.27648437 727.91546875 4.45921875 728.5496875 3.6171875 729.203125 C-1.0456629 732.43857221 -5.7417608 735.56590659 -10.5625 738.5625 C-12.22359897 739.61016408 -13.88468984 740.65784127 -15.54528809 741.70629883 C-17.25521249 742.78453687 -18.96728215 743.85930114 -20.6796875 744.93359375 C-25.99427528 748.27822463 -31.277367 751.67159609 -36.5625 755.0625 C-38.64566759 756.39609227 -40.72900134 757.72942502 -42.8125 759.0625 C-43.84375 759.7225 -44.875 760.3825 -45.9375 761.0625 C-80.31250001 783.06250001 -80.31250001 783.06250001 -83.43945312 785.0637207 C-85.51631154 786.39292957 -87.59313463 787.72219362 -89.66992188 789.05151367 C-94.97702872 792.44841186 -100.28480424 795.84425767 -105.59375 799.23828125 C-107.75000572 800.61717856 -109.90625579 801.99608469 -112.0625 803.375 C-113.10059814 804.03846436 -114.13869629 804.70192871 -115.20825195 805.38549805 C-119.88290206 808.37579779 -124.55161291 811.37405391 -129.19921875 814.40625 C-129.97587891 814.91244873 -130.75253906 815.41864746 -131.55273438 815.94018555 C-132.95828533 816.85801032 -134.36210582 817.7784941 -135.76367188 818.70239258 C-147.74551064 826.52838242 -147.74551064 826.52838242 -155.0625 825.0625 C-164.64939071 821.49461027 -173.13833888 815.25588509 -181.62890625 809.65576172 C-186.0377078 806.76934128 -190.48890525 803.94954766 -194.9375 801.125 C-195.87271484 800.53066162 -196.80792969 799.93632324 -197.77148438 799.32397461 C-200.53439776 797.56895099 -203.29821529 795.81536276 -206.0625 794.0625 C-206.86945313 793.55074219 -207.67640625 793.03898438 -208.5078125 792.51171875 C-219.0311226 785.84226302 -229.58752744 779.22661871 -240.1574707 772.63134766 C-247.09585438 768.29977506 -254.00928455 763.93047236 -260.91455078 759.54638672 C-266.07470791 756.28361817 -271.28105648 753.10496212 -276.50976562 749.95336914 C-285.31678385 744.64139759 -294.04053156 739.2284611 -302.625 733.5625 C-303.48722168 732.99934082 -304.34944336 732.43618164 -305.23779297 731.85595703 C-317.32400616 723.79126592 -317.32400616 723.79126592 -318.70420837 718.69136047 C-319.05284528 716.13333866 -319.22029598 713.67495821 -319.26782227 711.09448242 C-319.28776245 710.11792694 -319.30770264 709.14137146 -319.32824707 708.13522339 C-319.3449646 707.07352936 -319.36168213 706.01183533 -319.37890625 704.91796875 C-319.41014587 703.22270554 -319.41014587 703.22270554 -319.4420166 701.49319458 C-319.50859882 697.74553508 -319.56730778 693.99780627 -319.625 690.25 C-319.65676834 688.32805313 -319.65676834 688.32805313 -319.68917847 686.36727905 C-320.19732966 655.26664659 -320.16546869 624.16628271 -320.0625 593.0625 C-323.75516199 592.27607457 -327.09385807 591.95444407 -330.875 592 C-332.33873047 592.01353516 -332.33873047 592.01353516 -333.83203125 592.02734375 C-334.56808594 592.03894531 -335.30414063 592.05054688 -336.0625 592.0625 C-337.06025167 614.42965104 -337.1875 636.80209579 -337.1875 659.1875 C-337.1875 659.91546028 -337.1875 660.64342056 -337.1875 661.39344025 C-337.18220697 685.29335573 -336.90306525 709.17569223 -336.0625 733.0625 C-335.17896851 733.48329834 -335.17896851 733.48329834 -334.27758789 733.91259766 C-332.23838532 734.97119394 -330.47416595 736.10967903 -328.62109375 737.4609375 C-327.96560547 737.93370117 -327.31011719 738.40646484 -326.63476562 738.89355469 C-325.57805664 739.65780762 -325.57805664 739.65780762 -324.5 740.4375 C-316.11396616 746.42597902 -307.48142582 751.93049954 -298.74072266 757.38183594 C-293.72127547 760.53168776 -288.73790475 763.73802916 -283.75 766.9375 C-269.04913259 776.35716874 -254.32899343 785.74598805 -239.5625 795.0625 C-232.68009389 799.40503969 -225.80485247 803.75868746 -218.9375 808.125 C-218.00478271 808.71796875 -217.07206543 809.3109375 -216.11108398 809.921875 C-211.27135863 813.00351687 -206.44750229 816.10704663 -201.64404297 819.24487305 C-190.60977848 826.44583138 -179.37988365 833.31646861 -168.0625 840.0625 C-167.34916504 840.49208008 -166.63583008 840.92166016 -165.90087891 841.36425781 C-158.08956864 846.3920035 -158.08956864 846.3920035 -149.18359375 847.73046875 C-139.29098111 844.6151156 -130.3648062 837.78925638 -121.7578125 832.13671875 C-116.70100607 828.81597516 -111.60470304 825.5590076 -106.5 822.3125 C-105.5812207 821.72799072 -104.66244141 821.14348145 -103.71582031 820.54125977 C-95.77239476 815.49686965 -87.79494919 810.50766437 -79.81201172 805.52612305 C-70.5398428 799.73983917 -61.28956846 793.92042194 -52.0625 788.0625 C-51.13421387 787.4742041 -50.20592773 786.8859082 -49.24951172 786.27978516 C-34.39621613 776.85830097 -19.69859564 767.22658762 -5.09257507 757.42845154 C-1.14957446 754.78512067 2.80531494 752.16027861 6.765625 749.54296875 C8.40229126 748.45918945 8.40229126 748.45918945 10.07202148 747.35351562 C12.1297027 745.99152889 14.18900845 744.631992 16.25024414 743.27539062 C18.83137368 741.56348813 21.38632105 739.81856241 23.9375 738.0625 C24.58380371 737.65338379 25.23010742 737.24426758 25.89599609 736.82275391 C27.80175644 735.58480716 27.80175644 735.58480716 29.9375 733.0625 C31.11369498 725.93220778 31.0834283 718.82331525 31.07794189 711.61123657 C31.08091302 710.38059774 31.08388414 709.1499589 31.0869453 707.88202798 C31.09408798 704.48766626 31.09680164 701.09335519 31.09754276 697.69898963 C31.09940305 694.0303388 31.10695469 690.36169874 31.11367798 686.6930542 C31.12721612 678.68537814 31.1332775 670.67770712 31.13768864 662.67002153 C31.14045585 657.67028606 31.14469379 652.6705525 31.14919281 647.67081833 C31.16137412 633.82498865 31.17167921 619.9791605 31.1750679 606.13332558 C31.17528747 605.24861297 31.17550703 604.36390037 31.17573325 603.4523783 C31.17595153 602.56559318 31.17616981 601.67880806 31.1763947 600.76515067 C31.17683816 598.96827102 31.17728473 597.17139137 31.17773438 595.37451172 C31.1779558 594.48320373 31.17817723 593.59189575 31.17840537 592.67357843 C31.1823606 578.20406791 31.19984173 563.73460753 31.2230939 549.26511641 C31.24677924 534.40628194 31.25926828 519.54747268 31.26043582 504.68861902 C31.26135359 496.34684472 31.26713238 488.00513595 31.28525543 479.66337967 C31.30061764 472.56771165 31.30579953 465.47212947 31.29751733 458.37644799 C31.29359847 454.75477252 31.29460056 451.13327015 31.30857468 447.51161575 C31.32356248 443.59162195 31.31548487 439.67187465 31.30499268 435.75186157 C31.31304908 434.59945469 31.32110548 433.4470478 31.32940602 432.25971949 C31.31952126 430.6915572 31.31952126 430.6915572 31.3094368 429.09171486 C31.31003389 428.18640388 31.31063097 427.2810929 31.31124616 426.34834826 C31.0880098 424.0381842 31.0880098 424.0381842 29.79359668 422.27026945 C27.10808096 420.52279375 25.05937149 420.69693929 21.86801624 420.70897388 C20.59060371 420.70648413 19.31319118 420.70399439 17.99706918 420.70142919 C16.57135206 420.71391845 15.14563735 420.72668553 13.71992493 420.73970032 C12.21178548 420.74252118 10.70364308 420.74402058 9.19550103 420.74430722 C5.04058038 420.74894323 0.88594324 420.77240828 -3.26888812 420.79884613 C-7.74533017 420.82406733 -12.22180594 420.83197181 -16.69830322 420.84194946 C-24.45766145 420.86162847 -32.21691351 420.89234744 -39.97620201 420.93050575 C-51.19490223 420.98566076 -62.41361098 421.02425769 -73.63239143 421.058777 C-91.83286154 421.11522974 -110.03325432 421.18512578 -128.23364258 421.26342773 C-145.91656394 421.33947475 -163.59949158 421.40922041 -181.2824707 421.47045898 C-182.91666853 421.47612173 -182.91666853 421.47612173 -184.58388045 421.48189888 C-190.0492542 421.50079827 -195.51462837 421.51957342 -200.98000276 421.53828681 C-246.340916 421.69376288 -291.70172535 421.87103578 -337.0625 422.0625 C-337.20346021 427.11964796 -337.34322687 432.1768271 -337.48195428 437.2340368 C-337.52917036 438.94942447 -337.57669556 440.66480367 -337.62455314 442.38017356 C-337.95447517 454.21528318 -338.20351585 466.04345934 -338.23116493 477.88368607 C-338.24406153 482.2428465 -338.27984045 486.60187281 -338.31054688 490.9609375 C-338.34717591 496.39453775 -338.37704499 501.82800197 -338.38842773 507.26171875 C-338.3984692 511.771987 -338.42759694 516.28177313 -338.46974754 520.79185104 C-338.48201639 522.48631545 -338.48718635 524.18084743 -338.48494911 525.87535477 C-338.48261168 528.2086243 -338.50460512 530.54045936 -338.5324707 532.87353516 C-338.52256859 533.90627815 -338.52256859 533.90627815 -338.51246643 534.95988464 C-338.57476094 538.11866393 -338.67180566 539.66610212 -340.93450928 541.96183777 C-343.45746569 543.2667884 -345.74262646 543.88285553 -348.52734375 544.44921875 C-350.09838867 544.7730957 -350.09838867 544.7730957 -351.70117188 545.10351562 C-352.78978516 545.31685547 -353.87839844 545.53019531 -355 545.75 C-356.08474609 545.97494141 -357.16949219 546.19988281 -358.28710938 546.43164062 C-367.59341953 548.31349437 -367.59341953 548.31349437 -372.0625 548.0625 C-373.84543499 546.27956501 -373.1925608 543.65375911 -373.19621277 541.24334717 C-373.20047775 539.97866104 -373.20474274 538.71397491 -373.20913696 537.41096497 C-373.20878739 535.99630734 -373.20832583 534.58164974 -373.20776367 533.16699219 C-373.21075362 531.68729059 -373.21415577 530.20758979 -373.21794128 528.72789001 C-373.22680446 524.69674619 -373.22912043 520.66562357 -373.22975707 516.63447094 C-373.23070469 513.27224065 -373.23438148 509.91001533 -373.23792917 506.54778695 C-373.24608333 498.61437495 -373.24851261 490.6809743 -373.24780273 482.74755859 C-373.2472024 474.56048903 -373.25774316 466.37348546 -373.2735464 458.1864326 C-373.28662103 451.1630347 -373.29198663 444.13965835 -373.29134732 437.11624837 C-373.29109222 432.91919849 -373.29395014 428.72220715 -373.30452538 424.52516937 C-373.31420449 420.57553042 -373.31428682 416.62600597 -373.30700874 412.67636299 C-373.30596251 411.22715907 -373.3083281 409.77794804 -373.3143692 408.32875633 C-373.32208659 406.3490478 -373.31624608 404.36930028 -373.30973816 402.3895874 C-373.31028293 401.28196926 -373.31082769 400.17435112 -373.31138897 399.03316879 C-372.93516041 394.54261044 -371.66620217 391.82143988 -368.875 388.3125 C-364.11141161 384.50162929 -358.3674362 384.93853333 -352.45121765 384.90428162 C-350.51633232 384.88959839 -350.51633232 384.88959839 -348.5423584 384.87461853 C-347.12939491 384.8687147 -345.71643102 384.86290423 -344.3034668 384.85717773 C-342.80096679 384.84758543 -341.2984694 384.83757459 -339.79597473 384.82717896 C-335.71987323 384.80018882 -331.64376033 384.77912622 -327.56761909 384.75917697 C-323.26468918 384.737151 -318.96179278 384.70981557 -314.65888977 384.68312073 C-307.40501426 384.63886001 -300.15112614 384.59811207 -292.8972168 384.55981445 C-282.79152098 384.50645138 -272.68587187 384.44656117 -262.58022058 384.38541877 C-255.47438212 384.3426916 -248.36853386 384.30162757 -241.26268411 384.2608273 C-239.56984564 384.25109769 -237.87700745 384.241322 -236.18416953 384.23149753 C-213.14336791 384.09801192 -190.10369517 384.03590157 -167.0625 384.0625 C-174.90141385 329.87628297 -196.64446076 276.46262962 -241.4453125 242.71875 C-242.64878652 241.83027053 -243.85451264 240.94483329 -245.0625 240.0625 C-245.94180176 239.41667969 -245.94180176 239.41667969 -246.83886719 238.7578125 C-258.63700461 230.20562063 -271.86489711 222.68741989 -286.0625 219.0625 C-281.52950019 223.19834877 -276.82923364 227.04775014 -271.9375 230.75 C-254.94872253 243.70276957 -239.18948747 258.1545141 -226.0625 275.0625 C-225.43730469 275.80886719 -224.81210937 276.55523437 -224.16796875 277.32421875 C-201.60164808 304.39461157 -201.60164808 304.39461157 -199.609375 318.203125 C-200.0625 321.0625 -200.0625 321.0625 -202.05078125 322.80078125 C-225.42688889 332.59388471 -254.21275452 330.03171269 -277.2109375 320.72265625 C-301.67554516 310.39193627 -319.60914395 292.59084021 -333.0625 270.0625 C-333.63605225 269.11189697 -333.63605225 269.11189697 -334.22119141 268.14208984 C-348.03827816 244.87614051 -355.04811476 217.60145053 -359.0625 191.0625 C-359.23168945 190.00071533 -359.23168945 190.00071533 -359.40429688 188.91748047 C-360.5756432 181.26353613 -360.5756432 181.26353613 -360.0625 178.0625 C-351.53957949 166.98916009 -328.73291242 165.36491245 -315.58203125 163.59375 C-312.73695451 163.32314825 -309.91858976 163.15541381 -307.0625 163.0625 C-306.07894531 163.02253906 -305.09539062 162.98257813 -304.08203125 162.94140625 C-272.46644636 162.27374794 -244.17286417 172.65261894 -220.0625 193.0625 C-219.2271875 193.76246094 -218.391875 194.46242187 -217.53125 195.18359375 C-199.33310322 210.93847083 -188.70588962 231.90380308 -178.0625 253.0625 C-177.7325 253.0625 -177.4025 253.0625 -177.0625 253.0625 C-176.94769287 252.41104004 -176.83288574 251.75958008 -176.71459961 251.08837891 C-173.43040212 232.69238067 -169.90220852 213.99371663 -163.3984375 196.4140625 C-163.0262207 195.40025513 -163.0262207 195.40025513 -162.64648438 194.3659668 C-162.00131885 192.66796402 -161.31158538 190.98706436 -160.6171875 189.30859375 C-159.81636185 184.62207181 -161.34465715 181.39961497 -163.0625 177.0625 C-163.65481284 175.39332952 -164.23929654 173.72136268 -164.81640625 172.046875 C-165.11281006 171.19456299 -165.40921387 170.34225098 -165.71459961 169.46411133 C-168.72613274 160.69278889 -171.34957629 152.35691277 -172.0625 143.0625 C-172.16691406 141.886875 -172.16691406 141.886875 -172.2734375 140.6875 C-173.55257359 111.56255527 -158.99639266 81.65512341 -140.00268555 60.37768555 C-137.73019461 57.89900724 -135.39705422 55.4829077 -133.0625 53.0625 C-132.22332031 52.14855469 -131.38414062 51.23460937 -130.51953125 50.29296875 C-103.80376612 22.04135026 -61.85587055 6.69906492 -24.0625 1.0625 C-23.42836182 0.96606201 -22.79422363 0.86962402 -22.14086914 0.77026367 C-14.78264119 -0.20871327 -7.40936422 -0.04747252 0 0 Z " fill="#DFE1A4" transform="translate(488.0625,32.9375)"/>
<path d="M0 0 C1.9076564 -0.00835373 1.9076564 -0.00835373 3.85385132 -0.01687622 C5.26600832 -0.00785347 6.67816346 0.00146433 8.09031677 0.01104736 C9.57518128 0.01025664 11.06004558 0.00815986 12.54490662 0.00485229 C16.57995701 -0.00028737 20.61475293 0.01326438 24.64976239 0.0303793 C28.86756607 0.04539784 33.0853662 0.04424084 37.30319214 0.04504395 C44.38576105 0.04873794 51.46823312 0.06371262 58.55076599 0.08624268 C67.64967597 0.11512748 76.74850799 0.12546669 85.84745884 0.12992477 C93.66065832 0.13390128 101.47384077 0.14640317 109.28702807 0.16027164 C111.80328568 0.16437457 114.31954268 0.16729818 116.83580208 0.17006683 C120.78462422 0.17495282 124.73339887 0.18514434 128.68219757 0.19950485 C130.1342698 0.20403519 131.58634843 0.20686825 133.03842735 0.20791245 C135.01472282 0.20965286 136.99100893 0.21815775 138.96728516 0.22705078 C140.07507104 0.23002544 141.18285692 0.23300011 142.32421207 0.23606491 C144.92015076 0.36749268 144.92015076 0.36749268 146.92015076 1.36749268 C149.1412804 7.29050504 146.62991467 14.03054966 144.22093201 19.57843018 C143.57034262 20.97219725 142.90724223 22.36018318 142.23265076 23.74249268 C141.87598328 24.48144775 141.5193158 25.22040283 141.15184021 25.98175049 C135.56051815 37.36563748 128.4278067 47.01842021 119.92015076 56.36749268 C119.39534119 56.94434814 118.87053162 57.52120361 118.32981873 58.11553955 C92.47944756 86.1078649 55.8486869 102.29119189 17.92015076 104.36749268 C13.77387919 104.51932606 9.63151305 104.590304 5.48265076 104.61749268 C4.48088806 104.62683838 3.47912537 104.63618408 2.44700623 104.64581299 C1.51130798 104.64162354 0.57560974 104.63743408 -0.38844299 104.63311768 C-1.22174133 104.63086182 -2.05503967 104.62860596 -2.91358948 104.62628174 C-5.07984924 104.36749268 -5.07984924 104.36749268 -8.07984924 102.36749268 C-9.42137525 98.34291466 -9.23566349 94.45923331 -9.24098206 90.26202393 C-9.24594696 89.33006195 -9.25091187 88.39809998 -9.25602722 87.43789673 C-9.27064488 84.35192124 -9.2774491 81.26599711 -9.28297424 78.17999268 C-9.28872464 76.03912352 -9.29448239 73.89825438 -9.30024719 71.75738525 C-9.3107551 67.26836914 -9.3165996 62.77937093 -9.32008362 58.29034424 C-9.32557742 52.52978889 -9.34962529 46.76946883 -9.37805557 41.00898743 C-9.39664706 36.58757832 -9.40188562 32.16622639 -9.40341949 27.74478149 C-9.40645287 25.62043975 -9.41450433 23.49609917 -9.42760468 21.37179565 C-9.44459725 18.40533318 -9.44280192 15.43945237 -9.43629456 12.47296143 C-9.44550934 11.59078949 -9.45472412 10.70861755 -9.46421814 9.79971313 C-9.45864899 8.99216583 -9.45307983 8.18461853 -9.44734192 7.3526001 C-9.44880848 6.65132492 -9.45027504 5.95004974 -9.45178604 5.2275238 C-8.40495891 -0.0075889 -4.6641856 -0.00617266 0 0 Z " fill="#DFE1A3" transform="translate(178.07984924316406,475.63250732421875)"/>
<path d="M0 0 C1.26347895 -0.00199105 2.5269579 -0.0039821 3.82872409 -0.00603348 C5.23871802 -0.00318024 6.64871176 -0.00023464 8.05870533 0.00279331 C9.55034761 0.00235749 11.04198982 0.00148238 12.53363162 0.00020415 C16.64283145 -0.00203868 20.75200536 0.00197759 24.86120188 0.00698221 C29.28859338 0.01128954 33.71598335 0.00984008 38.14337635 0.00907993 C45.81755579 0.00855488 53.49172674 0.01169975 61.16590405 0.01731777 C72.26155798 0.02543527 83.3572078 0.02804825 94.45286439 0.02930576 C112.45362656 0.03149589 130.45438421 0.03815491 148.45514393 0.04760838 C165.94407599 0.05678351 183.43300682 0.06386385 200.9219408 0.06811619 C202.53821665 0.06851027 202.53821665 0.06851027 204.18714454 0.06891232 C209.59258235 0.07021733 214.99802017 0.07148105 220.403458 0.07272422 C265.26663704 0.08309561 310.12981115 0.10071286 354.99298573 0.12304783 C354.99298573 0.45304783 354.99298573 0.78304783 354.99298573 1.12304783 C346.409239 2.09198837 337.89992848 2.27551142 329.26894093 2.28126621 C327.80339144 2.28584115 326.33784324 2.29084251 324.87229651 2.29622978 C320.8723966 2.30971432 316.87250511 2.3172009 312.87258852 2.32365644 C308.54894145 2.33170333 304.22531168 2.34538616 299.90167713 2.35836887 C292.41972175 2.38007112 284.93776456 2.39823829 277.45579433 2.41397381 C266.63824974 2.43672962 255.82072434 2.46486437 245.00319608 2.49429309 C227.4505661 2.54189918 209.89792824 2.58518218 192.34528065 2.62573338 C175.29905046 2.6651239 158.25282726 2.7065586 141.20660877 2.75073338 C140.15508929 2.75345765 139.10356981 2.75618192 138.0201861 2.75898875 C132.74478584 2.77266881 127.46938569 2.78638897 122.19398558 2.80012906 C78.46033354 2.91398408 34.72666638 3.02081758 -9.00701427 3.12304783 C-9.00701427 2.46304783 -9.00701427 1.80304783 -9.00701427 1.12304783 C-5.75956342 0.04056421 -3.41697421 -0.00118439 0 0 Z " fill="#F3F3DF" transform="translate(160.00701427459717,451.8769521713257)"/>
<path d="M0 0 C0.66 0.66 1.32 1.32 2 2 C4.81775471 2.36756323 4.81775471 2.36756323 8.23828125 2.39428711 C9.24782112 2.42106757 9.24782112 2.42106757 10.27775574 2.44838905 C12.62255324 2.50643703 14.96735104 2.54851219 17.3125 2.58984375 C19.0533882 2.62689879 20.7942735 2.66409034 22.53515625 2.70140076 C52.09847982 3.29005976 81.67502213 3.34771751 111.24300194 3.51741064 C119.96196382 3.56759069 128.68089648 3.62220416 137.39982986 3.67708123 C155.26652608 3.78944058 173.13324997 3.89656984 191 4 C191 4.33 191 4.66 191 5 C127.97 5 64.94 5 0 5 C0 3.35 0 1.7 0 0 Z " fill="#E6E9C4" transform="translate(343,414)"/>
<path d="M0 0 C2 3 2 3 2 9 C-60.7 9 -123.4 9 -188 9 C-188 8.67 -188 8.34 -188 8 C-168.50810713 7.86822571 -149.01620575 7.73778552 -129.5242939 7.60884857 C-120.46980501 7.5489244 -111.41531919 7.48859586 -102.36083984 7.42724609 C-94.45059344 7.37365033 -86.54034196 7.32088372 -78.63008392 7.26903296 C-74.45838317 7.24166113 -70.28668567 7.21392866 -66.11499405 7.18519592 C-44.07631632 7.03373437 -22.03920223 6.96980583 0 7 C0 4.69 0 2.38 0 0 Z " fill="#E6E9C3" transform="translate(321,410)"/>
<path d="M0 0 C1.21438751 -0.00137466 2.42877502 -0.00274933 3.67996216 -0.00416565 C5.03280664 -0.00062629 6.38565088 0.00300853 7.73849487 0.00672913 C9.15749103 0.00701108 10.57648733 0.00685311 11.9954834 0.00628662 C15.85475872 0.00599896 19.71400315 0.0118906 23.57327127 0.01886058 C27.60383861 0.02509936 31.63440661 0.02569833 35.66497803 0.02688599 C43.30060082 0.02999775 50.93620936 0.03820906 58.57182586 0.04823548 C67.2633615 0.05940141 75.95489781 0.06490828 84.64643884 0.06993091 C102.52853202 0.08039179 120.41061191 0.09798825 138.29269409 0.12025452 C138.29269409 0.45025452 138.29269409 0.78025452 138.29269409 1.12025452 C137.55847575 1.12264287 136.82425741 1.12503122 136.06779003 1.12749195 C118.21625649 1.18658541 100.36486187 1.26209899 82.51347637 1.35596943 C73.88073127 1.40096674 65.24802778 1.44037223 56.61520386 1.46669006 C49.09228152 1.48963838 41.56949045 1.52300069 34.04667217 1.56895608 C30.06206191 1.59293125 26.07758201 1.61163178 22.09290123 1.61786842 C18.34425632 1.62390001 14.59594512 1.64382925 10.84742355 1.67453003 C9.46997072 1.68334134 8.09247432 1.68702646 6.71499443 1.68526268 C4.83738831 1.68361725 2.95979625 1.70202946 1.08229065 1.7215271 C-0.49535804 1.72844055 -0.49535804 1.72844055 -2.10487843 1.73549366 C-5.07077928 2.17399293 -5.93052501 2.76240389 -7.70730591 5.12025452 C-8.684462 6.92216066 -8.684462 6.92216066 -9.39480591 8.80775452 C-9.82793091 9.90087952 -10.26105591 10.99400452 -10.70730591 12.12025452 C-11.70730591 9.12025452 -11.70730591 9.12025452 -11.00027466 7.11244202 C-10.63546997 6.41377014 -10.27066528 5.71509827 -9.89480591 4.99525452 C-9.5377356 4.29142639 -9.18066528 3.58759827 -8.81277466 2.86244202 C-6.61547178 -0.60044521 -3.78764525 -0.0032936 0 0 Z " fill="#E3E5BA" transform="translate(358.7073059082031,475.87974548339844)"/>
<path d="M0 0 C0.66 0.66 1.32 1.32 2 2 C4.75390592 2.23504795 7.41402364 2.34983725 10.171875 2.37890625 C11.41188263 2.40392212 11.41188263 2.40392212 12.67694092 2.42944336 C15.36787667 2.48229934 18.05884936 2.52222813 20.75 2.5625 C24.40112792 2.63124458 28.05211486 2.70654531 31.703125 2.78125 C33.04624756 2.80730064 33.04624756 2.80730064 34.41650391 2.83387756 C41.45043031 2.97424318 48.47284108 3.21673267 55.5 3.5625 C56.39299805 3.60640869 57.28599609 3.65031738 58.20605469 3.69555664 C60.13756171 3.79331697 62.06882367 3.89591137 64 4 C64 4.33 64 4.66 64 5 C42.88 5 21.76 5 0 5 C0 3.35 0 1.7 0 0 Z " fill="#EEF0D8" transform="translate(343,414)"/>
<path d="M0 0 C0.33 0.66 0.66 1.32 1 2 C0.0702637 4.77391718 -0.93016246 7.46763432 -2 10.1875 C-9.40152294 29.70908671 -14.56682476 49.61625532 -19 70 C-19.33 70 -19.66 70 -20 70 C-20.34782472 63.82933187 -19.91228746 58.94095013 -17.72265625 53.15625 C-17.00372712 51.01112092 -16.70308191 49.1218637 -16.5 46.875 C-15.96674402 42.74226619 -14.64281377 39.81132795 -13 36 C-12.67679314 34.44371821 -12.38752666 32.88015922 -12.125 31.3125 C-11.20208262 26.26315036 -9.4235797 21.86934382 -7.37109375 17.1796875 C-5.43239058 12.68366361 -3.7338959 8.10339951 -2.015625 3.51953125 C-1 1 -1 1 0 0 Z " fill="#F4F5E6" transform="translate(355,196)"/>
<path d="M0 0 C2.29013653 3.4352048 2.17842973 4.985331 2 9 C-24.17654243 9.20638953 -24.17654243 9.20638953 -34 8 C-34 7.67 -34 7.34 -34 7 C-22.78 7 -11.56 7 0 7 C0 4.69 0 2.38 0 0 Z " fill="#F4F6E7" transform="translate(321,410)"/>
<path d="M0 0 C0.99 0 1.98 0 3 0 C2.67 8.91 2.34 17.82 2 27 C1.34 27 0.68 27 0 27 C0 18.09 0 9.18 0 0 Z " fill="#EFF0D7" transform="translate(148,455)"/>
<path d="M0 0 C10.69220032 -0.19558903 21.32799208 0.40945411 32 1 C32 1.33 32 1.66 32 2 C21.32978521 4.04253729 10.54333045 3.45499586 0 1 C0 0.67 0 0.34 0 0 Z " fill="#EEEED5" transform="translate(176,598)"/>
<path d="M0 0 C0.66 0.33 1.32 0.66 2 1 C-2.20857014 5.74299174 -6.42467687 10.48390195 -10.8125 15.0625 C-11.59560547 15.88427734 -11.59560547 15.88427734 -12.39453125 16.72265625 C-14.23448204 18.1865587 -15.70405592 18.59659117 -18 19 C-12.44964797 12.21623641 -6.23557973 6.14477032 0 0 Z " fill="#E7E9C3" transform="translate(366,75)"/>
<path d="M0 0 C0.33 0 0.66 0 1 0 C0.38277416 9.56700056 -1.8201341 18.69247957 -4 28 C-4.33 28 -4.66 28 -5 28 C-5.34719897 21.84043316 -4.91892511 16.95392447 -2.73046875 11.1796875 C-1.60892353 7.83304455 -1.37507113 4.50066384 -1 1 C-0.67 0.67 -0.34 0.34 0 0 Z " fill="#EFEFD8" transform="translate(340,238)"/>
<path d="M0 0 C3.73875197 3.97432374 4.64644852 6.93083264 5.25 12.3125 C5.47429687 14.19388672 5.47429687 14.19388672 5.703125 16.11328125 C5.85007812 17.54220703 5.85007812 17.54220703 6 19 C6.66 19 7.32 19 8 19 C8 22.3 8 25.6 8 29 C7.67 29 7.34 29 7 29 C6.01641759 25.29282359 5.03892329 21.58406788 4.0625 17.875 C3.78470703 16.82828125 3.50691406 15.7815625 3.22070312 14.703125 C2.95322266 13.68476563 2.68574219 12.66640625 2.41015625 11.6171875 C2.16402588 10.68503418 1.91789551 9.75288086 1.66430664 8.79248047 C0.97046497 5.8758465 0.46049132 2.96166616 0 0 Z " fill="#F0F0DB" transform="translate(310,366)"/>
<path d="M0 0 C-1.50349377 3.66786393 -3.63728792 5.68910393 -6.625 8.25 C-7.44226563 8.95640625 -8.25953125 9.6628125 -9.1015625 10.390625 C-9.72804688 10.92171875 -10.35453125 11.4528125 -11 12 C-11 9 -11 9 -9.1015625 6.73828125 C-8.28429687 5.93777344 -7.46703125 5.13726563 -6.625 4.3125 C-5.81289062 3.50425781 -5.00078125 2.69601562 -4.1640625 1.86328125 C-2 0 -2 0 0 0 Z " fill="#E3E5BA" transform="translate(133,601)"/>
<path d="M0 0 C0.66 0.33 1.32 0.66 2 1 C1.01 2.485 1.01 2.485 0 4 C-1.32 4 -2.64 4 -4 4 C-4 4.66 -4 5.32 -4 6 C-6.31 6.66 -8.62 7.32 -11 8 C-8.83385197 5.69125289 -6.60793392 3.94709819 -3.9375 2.25 C-2.89916016 1.57710937 -2.89916016 1.57710937 -1.83984375 0.890625 C-1.23269531 0.59671875 -0.62554687 0.3028125 0 0 Z " fill="#F3F4E2" transform="translate(280,573)"/>
<path d="M0 0 C0.66 0.33 1.32 0.66 2 1 C-0.31 3.97 -2.62 6.94 -5 10 C-5.33 8.68 -5.66 7.36 -6 6 C-3.625 3.3125 -3.625 3.3125 -1 1 C-0.67 0.67 -0.34 0.34 0 0 Z " fill="#E7E9C7" transform="translate(122,419)"/>
<path d="M0 0 C0.33 0 0.66 0 1 0 C1.20674944 5.78898419 0.59162079 10.42932723 -1 16 C-1.66 15.67 -2.32 15.34 -3 15 C-2.01 10.05 -1.02 5.1 0 0 Z " fill="#F0F1DD" transform="translate(313,275)"/>
<path d="M0 0 C1.77155654 0.11429397 3.54226229 0.24183037 5.3125 0.375 C6.79169922 0.47941406 6.79169922 0.47941406 8.30078125 0.5859375 C11 1 11 1 14 3 C4.58997722 3.3690205 4.58997722 3.3690205 0 1 C0 0.67 0 0.34 0 0 Z " fill="#EBEDCF" transform="translate(206,198)"/>
</svg>
